<?xml version="1.0" encoding="utf-8"?>
<!-- Generator: Adobe Illustrator 25.4.1, SVG Export Plug-In . SVG Version: 6.00 Build 0)  -->
<svg version="1.0" id="katman_1" xmlns="http://www.w3.org/2000/svg" xmlns:xlink="http://www.w3.org/1999/xlink" x="0px" y="0px"
	 viewBox="0 0 1024 768" style="enable-background:new 0 0 1024 768;" xml:space="preserve">
<style type="text/css">
	.st0{clip-path:url(#SVGID_00000096756194216568196310000000320736671904095910_);}
	.st1{clip-path:url(#SVGID_00000091711256861860713210000008147489751441061561_);}
	.st2{clip-path:url(#SVGID_00000124158424944249109140000017825478930602986390_);}
	.st3{clip-path:url(#SVGID_00000147929410736276873660000002577346213733574584_);fill:#FFFFFF;}
	.st4{clip-path:url(#SVGID_00000139291248934207552600000013547238444174115767_);}
	.st5{clip-path:url(#SVGID_00000028285161658265781300000007483424509883657654_);}
	.st6{clip-path:url(#SVGID_00000093883060461084467810000009002625481514835887_);fill:#FFFFFF;}
	.st7{clip-path:url(#SVGID_00000025423732390275000440000013988464809409404062_);}
	.st8{clip-path:url(#SVGID_00000029020898955029818680000010025602784994288043_);}
	.st9{clip-path:url(#SVGID_00000168817465318762049450000009664220840111218848_);fill:#C2C5C7;}
	.st10{clip-path:url(#SVGID_00000121979777175873366930000002854159718754420608_);}
	.st11{clip-path:url(#SVGID_00000065071707802789470540000001639193185786474388_);}
	.st12{clip-path:url(#SVGID_00000030479388044075701860000015758512391063770270_);fill:#B2282D;}
	.st13{clip-path:url(#SVGID_00000135668952449630396490000011396653035239835788_);}
	.st14{clip-path:url(#SVGID_00000112623025752623463230000008198775348817746048_);}
	.st15{clip-path:url(#SVGID_00000044882397263339934110000014486033127888305286_);}
	.st16{clip-path:url(#SVGID_00000085209690085134233640000007861679464178311317_);fill:#512C1D;}
	.st17{clip-path:url(#SVGID_00000160902495809021186690000000496985259791572925_);}
	.st18{clip-path:url(#SVGID_00000050661069194815135700000007869748402782328217_);}
	.st19{clip-path:url(#SVGID_00000042702951833578218730000011737693429145619640_);}
	.st20{clip-path:url(#SVGID_00000148626097973533109620000001863329854761118138_);fill:#512C1D;}
	.st21{clip-path:url(#SVGID_00000076580088526057571420000005087516925339407777_);}
	.st22{clip-path:url(#SVGID_00000041278131734340283010000000869571390420091290_);}
	.st23{clip-path:url(#SVGID_00000072966050517595078400000017533088497461034880_);}
	.st24{clip-path:url(#SVGID_00000141442086398174488970000001491595577255634879_);fill:#FFFFFF;}
	.st25{clip-path:url(#SVGID_00000013878107476436247480000013438902612366306704_);}
	.st26{clip-path:url(#SVGID_00000183941279696236882040000014319729552783532946_);}
	.st27{clip-path:url(#SVGID_00000098210255001535018280000004367559824715227008_);fill:#FFFFFF;}
	.st28{clip-path:url(#SVGID_00000091015797125361994660000010018628717313493390_);}
	.st29{clip-path:url(#SVGID_00000096054873418895728470000005089948500682568125_);}
	.st30{clip-path:url(#SVGID_00000061461528784678453670000010129818911576579735_);}
	.st31{clip-path:url(#SVGID_00000134215698869858036230000003828132308814849727_);fill:#FFFFFF;}
	.st32{clip-path:url(#SVGID_00000124883045379654987780000017616943371638443652_);}
	.st33{clip-path:url(#SVGID_00000103247678433920400080000008369795484773726343_);}
	.st34{clip-path:url(#SVGID_00000000191867714827492280000006809709740224433537_);}
	.st35{clip-path:url(#SVGID_00000044879767142006140350000004783890443959097275_);fill:#FFFFFF;}
	.st36{clip-path:url(#SVGID_00000039834936535762806930000016301680801462388910_);}
	.st37{clip-path:url(#SVGID_00000165205929549876925260000018228176616380609158_);}
	.st38{clip-path:url(#SVGID_00000060743071437817459920000010460616459503818655_);}
	.st39{clip-path:url(#SVGID_00000024722107314423113470000016790120476292488895_);fill:#FFFFFF;}
	.st40{clip-path:url(#SVGID_00000042695543456422690420000002516824341126297265_);}
	.st41{clip-path:url(#SVGID_00000135654367875596824420000016696377131538104753_);}
	.st42{clip-path:url(#SVGID_00000145047994123844633020000008011798195581380781_);}
	.st43{clip-path:url(#SVGID_00000128451094156850147650000017483240081798046889_);fill:#FFFFFF;}
	.st44{clip-path:url(#SVGID_00000139992109201471465810000017259716804109782171_);}
	.st45{clip-path:url(#SVGID_00000155130377660671278260000015098054529479774875_);}
	.st46{clip-path:url(#SVGID_00000044151586256150314480000005008700432071782845_);}
	.st47{clip-path:url(#SVGID_00000075871126428039398490000016340059594256878754_);fill:#FFFFFF;}
	.st48{clip-path:url(#SVGID_00000142868484556400563270000000286577491768256163_);}
	.st49{clip-path:url(#SVGID_00000106842807040312621110000009613309915865624709_);}
	.st50{clip-path:url(#SVGID_00000176016738152352770680000009148166869616287376_);}
	.st51{clip-path:url(#SVGID_00000075141154731343906440000009479558309472478901_);fill:#FFFFFF;}
	.st52{clip-path:url(#SVGID_00000078745195638059949730000012750411000006818481_);}
	.st53{clip-path:url(#SVGID_00000112602346746282676250000000077827556037166239_);}
	.st54{clip-path:url(#SVGID_00000122693026067189332760000016647496761325367186_);}
	.st55{clip-path:url(#SVGID_00000163754895864297630670000012471174359010097570_);fill:#FFFFFF;}
	.st56{clip-path:url(#SVGID_00000035506324939998040400000016751576809174890113_);}
	.st57{clip-path:url(#SVGID_00000085239611828630235460000007717004924589907097_);}
	.st58{clip-path:url(#SVGID_00000083070130701304081330000009709512861220170672_);}
	.st59{clip-path:url(#SVGID_00000160178526339796066930000011679555746578863744_);fill:#FFFFFF;}
	.st60{clip-path:url(#SVGID_00000183221962746621143520000017759286349843843993_);}
	.st61{clip-path:url(#SVGID_00000111191454945056024930000004799821681803649206_);}
	.st62{clip-path:url(#SVGID_00000151537074500806434330000018194123749909886131_);}
	.st63{clip-path:url(#SVGID_00000115477935273012899860000017289000192135944848_);fill:#FFFFFF;}
	.st64{clip-path:url(#SVGID_00000116940872187960773580000009408787509233894809_);}
	.st65{clip-path:url(#SVGID_00000064321655850566795130000014689700934174775681_);}
	.st66{clip-path:url(#SVGID_00000019666036516250988490000014743640956164483968_);}
	.st67{clip-path:url(#SVGID_00000109012223509240800000000013118619197690226566_);fill:#512C1D;}
</style>
<g>
	<g>
		<defs>
			<rect id="SVGID_1_" x="406.9" y="489.1" width="216.9" height="31"/>
		</defs>
		<defs>
			<rect id="SVGID_00000094598774359027621550000014551589813071879045_" x="406.9" y="489.1" width="216.9" height="31"/>
		</defs>
		<defs>
			<path id="SVGID_00000155124398508266458680000005328179741014739625_" d="M421.1,498.6v3.2c-0.9-0.5-1.9-0.9-2.8-1.2
				c-0.9-0.3-1.9-0.4-2.9-0.4c-1.5,0-2.5,0.2-3.3,0.7c-0.7,0.5-1.1,1.2-1.1,2.2c0,0.9,0.3,1.5,0.8,2c0.6,0.4,1.9,0.8,4.1,1.2
				l1.3,0.3c1.6,0.3,2.8,0.9,3.7,1.8c0.8,0.9,1.2,2.1,1.2,3.6c0,2-0.7,3.5-2.1,4.7c-1.4,1.1-3.3,1.6-5.7,1.6c-1,0-2-0.1-3.1-0.3
				c-1.1-0.2-2.2-0.5-3.5-0.9v-3.4c1.2,0.6,2.4,1.1,3.5,1.4c1.1,0.3,2.2,0.5,3.1,0.5c1.4,0,2.5-0.3,3.3-0.9c0.8-0.6,1.2-1.4,1.2-2.5
				c0-1.5-1.5-2.5-4.3-3.1l-0.2,0l-1.2-0.2c-1.9-0.4-3.2-1-4.1-1.9c-0.8-0.9-1.3-2.1-1.3-3.5c0-1.9,0.6-3.4,1.9-4.4
				c1.3-1.1,3.1-1.5,5.5-1.5c1.1,0,2.1,0.1,3,0.3C419.2,497.9,420.2,498.2,421.1,498.6L421.1,498.6z M435.5,494.3h3.2v-4.1h-3.3
				L435.5,494.3z M430.5,500.5h5l0,14.7l-6.4,0v2.5l16.1,0l0-2.5h-6.4v-17.2l-8.3,0V500.5z M466.5,505.4c0-2.7-0.5-4.7-1.5-6.1
				c-1-1.3-2.5-2-4.5-2c-1.3,0-2.5,0.3-3.5,0.9c-1,0.6-1.8,1.5-2.4,2.6v-3l-3.2,0l0,19.8h3.2v-11.2c0-2,0.4-3.6,1.2-4.6
				c0.8-1.1,2-1.6,3.5-1.6c1.3,0,2.3,0.4,2.9,1.3c0.7,0.8,0.9,2.1,0.9,3.9l0,12.3l3.3,0L466.5,505.4z M489.8,513.3
				c-0.8,0.7-1.6,1.2-2.5,1.6c-0.9,0.3-1.9,0.5-3,0.5c-2,0-3.6-0.6-4.7-2c-1.1-1.3-1.6-3.2-1.6-5.6c0-2.4,0.5-4.4,1.6-5.7
				c1.1-1.3,2.6-2,4.7-2c1.1,0,2.1,0.1,2.9,0.5c0.9,0.3,1.7,0.9,2.6,1.6v-3.4c-0.9-0.5-1.8-0.9-2.7-1.2c-0.9-0.2-1.9-0.4-2.8-0.4
				c-3.1,0-5.4,0.9-7.1,2.8c-1.7,1.8-2.6,4.4-2.6,7.7c0,3.2,0.9,5.8,2.6,7.7c1.7,1.8,4.1,2.8,7.1,2.8c1,0,1.9-0.2,2.8-0.4
				c0.9-0.2,1.8-0.6,2.7-1.1V513.3z M500,505.1c0.1-1.3,0.6-2.4,1.6-3.5c1-1,2.3-1.5,3.8-1.6c1.6,0,2.8,0.5,3.7,1.5
				c0.9,1,1.4,2.2,1.5,3.5L500,505.1z M513.9,506.1c-0.1-2.4-0.9-4.5-2.3-6.2c-1.5-1.7-3.4-2.6-5.9-2.6c-2.8,0-5.1,1-6.7,2.8
				c-1.7,1.9-2.5,4.4-2.5,7.6c0,3.2,0.8,5.8,2.6,7.7c1.7,1.8,4.1,2.7,7.2,2.7c1.1,0,2.2-0.2,3.3-0.4c1.2-0.2,2.3-0.6,3.6-1.1v-3.3
				c-1.3,0.7-2.5,1.2-3.6,1.5c-1.1,0.3-2.2,0.5-3.2,0.5c-2,0-3.6-0.6-4.7-1.8c-1.1-1.2-1.6-3.1-1.5-5.8v-0.1l14,0V506.1z
				 M534.4,517.6l14.4,0v-3h-5.4l0-23.4h-3.5l-6.6,3.2v3.4l6.6-3.2l0,20h-5.5L534.4,517.6z M563.2,505.8c-1.6,0-2.8-0.5-3.6-1.6
				c-0.8-1.1-1.2-2.6-1.2-4.7c0-2,0.4-3.6,1.2-4.6c0.8-1,2-1.5,3.5-1.5c1.5,0,2.7,0.5,3.6,1.6c0.9,1.1,1.3,2.6,1.3,4.5
				c0,2-0.4,3.5-1.3,4.6C565.9,505.3,564.7,505.8,563.2,505.8L563.2,505.8z M556.9,517c0.8,0.4,1.6,0.6,2.5,0.8
				c0.9,0.2,1.7,0.3,2.5,0.3c3.3,0,5.7-1.2,7.4-3.5c1.7-2.3,2.5-5.7,2.5-10.2c0-4.8-0.7-8.2-2.1-10.4c-1.4-2.2-3.7-3.3-6.7-3.3
				c-2.6,0-4.6,0.8-6.1,2.4c-1.4,1.6-2.1,3.7-2.1,6.6c0,2.9,0.7,5.1,2.1,6.7c1.4,1.6,3.3,2.4,5.8,2.4c1.3,0,2.4-0.3,3.5-1
				c1-0.6,1.8-1.5,2.3-2.7c0,3.3-0.6,5.9-1.7,7.6c-1.1,1.7-2.8,2.5-5.1,2.5c-0.9,0-1.8-0.1-2.6-0.3c-0.8-0.2-1.6-0.6-2.4-1
				L556.9,517z M579.4,504.3c0.8-0.4,1.7-0.8,2.6-1c0.8-0.2,1.8-0.3,2.8-0.3c2,0,3.5,0.5,4.6,1.6c1.1,1,1.7,2.5,1.7,4.4
				c0,1.9-0.5,3.4-1.6,4.4c-1.1,1.1-2.6,1.6-4.5,1.6c-1.2,0-2.3-0.2-3.4-0.4c-1.1-0.3-2.2-0.8-3.2-1.3v3.6c0.9,0.4,1.9,0.7,3.1,0.8
				c1.2,0.2,2.4,0.3,3.9,0.3c2.9,0,5.2-0.8,6.8-2.4c1.7-1.6,2.5-3.8,2.5-6.6c0-2.8-0.8-5-2.4-6.6c-1.6-1.6-3.7-2.4-6.5-2.4
				c-0.4,0-1,0-1.5,0.1c-0.5,0.1-1,0.2-1.5,0.4V494h10v-3l-13.3,0L579.4,504.3z M602.9,517.5l14.4,0v-3h-5.4l0-23.4h-3.5l-6.5,3.2
				v3.4l6.6-3.2l0,20h-5.5L602.9,517.5z M602.9,517.5"/>
		</defs>
		<defs>
			<rect id="SVGID_00000050624465344217908770000002910490421463594641_" x="406.9" y="489.1" width="216.9" height="31"/>
		</defs>
		<clipPath id="SVGID_00000093876912197268515640000001451025345481579681_">
			<use xlink:href="#SVGID_1_"  style="overflow:visible;"/>
		</clipPath>
		
			<clipPath id="SVGID_00000151528174819374025410000012406095191137854375_" style="clip-path:url(#SVGID_00000093876912197268515640000001451025345481579681_);">
			<use xlink:href="#SVGID_00000094598774359027621550000014551589813071879045_"  style="overflow:visible;"/>
		</clipPath>
		
			<clipPath id="SVGID_00000096023573642290871700000018369355477827108992_" style="clip-path:url(#SVGID_00000151528174819374025410000012406095191137854375_);">
			<use xlink:href="#SVGID_00000155124398508266458680000005328179741014739625_"  style="overflow:visible;"/>
		</clipPath>
		
			<clipPath id="SVGID_00000054251927798886102580000008905174912948048808_" style="clip-path:url(#SVGID_00000096023573642290871700000018369355477827108992_);">
			<use xlink:href="#SVGID_00000050624465344217908770000002910490421463594641_"  style="overflow:visible;"/>
		</clipPath>
		
			<rect x="378.7" y="461.2" style="clip-path:url(#SVGID_00000054251927798886102580000008905174912948048808_);fill:#FFFFFF;" width="267.7" height="86.1"/>
	</g>
	<g>
		<defs>
			<rect id="SVGID_00000061432995865709489740000003901572439612295312_" x="221" y="94" width="581" height="581"/>
		</defs>
		<defs>
			<rect id="SVGID_00000049912396554179399260000006434870992807688867_" x="221" y="94" width="581" height="581"/>
		</defs>
		<defs>
			<path id="SVGID_00000107576496819882732020000014153273787238026906_" d="M510.9,673.8C350.8,673.8,221,544,221,383.9
				C221,223.8,350.8,94,510.9,94C671,94,800.8,223.8,800.8,383.9C800.8,544,671,673.8,510.9,673.8"/>
		</defs>
		<clipPath id="SVGID_00000173126048049706944990000014758433044705935519_">
			<use xlink:href="#SVGID_00000061432995865709489740000003901572439612295312_"  style="overflow:visible;"/>
		</clipPath>
		
			<clipPath id="SVGID_00000042735749934904690540000018113924788794952583_" style="clip-path:url(#SVGID_00000173126048049706944990000014758433044705935519_);">
			<use xlink:href="#SVGID_00000049912396554179399260000006434870992807688867_"  style="overflow:visible;"/>
		</clipPath>
		
			<clipPath id="SVGID_00000004539671440903259480000013387829808012049586_" style="clip-path:url(#SVGID_00000042735749934904690540000018113924788794952583_);">
			<use xlink:href="#SVGID_00000107576496819882732020000014153273787238026906_"  style="overflow:visible;"/>
		</clipPath>
		
			<rect x="221" y="94" style="clip-path:url(#SVGID_00000004539671440903259480000013387829808012049586_);fill:#FFFFFF;" width="581" height="581"/>
	</g>
	<g>
		<defs>
			<rect id="SVGID_00000132773075140563898330000017983368688242247564_" x="221" y="94" width="573.3" height="573.3"/>
		</defs>
		<defs>
			<rect id="SVGID_00000141444111651534306150000017288217799536527504_" x="221" y="94" width="573.3" height="573.3"/>
		</defs>
		<defs>
			<path id="SVGID_00000038412933970555043050000018420465830846562716_" d="M510.9,108.9c-151.9,0-275,123.1-275,275
				c0,151.9,123.1,274.9,275,274.9c151.8,0,274.9-123.1,274.9-274.9C785.9,232,662.8,108.9,510.9,108.9 M510.9,666.3
				c-156,0-282.5-126.4-282.5-282.4c0-155.9,126.5-282.4,282.5-282.4c156,0,282.4,126.5,282.4,282.4
				C793.3,539.9,666.9,666.3,510.9,666.3"/>
		</defs>
		<clipPath id="SVGID_00000183954755897792286600000003565684105433878948_">
			<use xlink:href="#SVGID_00000132773075140563898330000017983368688242247564_"  style="overflow:visible;"/>
		</clipPath>
		
			<clipPath id="SVGID_00000031887673155539424030000018377619373253180841_" style="clip-path:url(#SVGID_00000183954755897792286600000003565684105433878948_);">
			<use xlink:href="#SVGID_00000141444111651534306150000017288217799536527504_"  style="overflow:visible;"/>
		</clipPath>
		
			<clipPath id="SVGID_00000091724850243701492680000015720226310266368401_" style="clip-path:url(#SVGID_00000031887673155539424030000018377619373253180841_);">
			<use xlink:href="#SVGID_00000038412933970555043050000018420465830846562716_"  style="overflow:visible;"/>
		</clipPath>
		
			<rect x="221" y="94" style="clip-path:url(#SVGID_00000091724850243701492680000015720226310266368401_);fill:#C2C5C7;" width="573.3" height="573.3"/>
	</g>
	<g>
		<defs>
			<rect id="SVGID_00000109022369644922145840000011439421850552581823_" x="267.5" y="140.5" width="480.3" height="480.3"/>
		</defs>
		<defs>
			<rect id="SVGID_00000065771048346969030770000001721166878217878460_" x="267.5" y="140.5" width="480.3" height="480.3"/>
		</defs>
		<defs>
			<path id="SVGID_00000151527942723096782130000012037901851894274234_" d="M510.9,620.4c130.3,0,236-105.9,236-236.5
				c0-130.6-105.6-236.5-236-236.5s-236,105.9-236,236.5C274.9,514.6,380.6,620.4,510.9,620.4"/>
		</defs>
		<clipPath id="SVGID_00000014592321797218940290000016881288777855276187_">
			<use xlink:href="#SVGID_00000109022369644922145840000011439421850552581823_"  style="overflow:visible;"/>
		</clipPath>
		
			<clipPath id="SVGID_00000084510616518264050730000004918445021967794563_" style="clip-path:url(#SVGID_00000014592321797218940290000016881288777855276187_);">
			<use xlink:href="#SVGID_00000065771048346969030770000001721166878217878460_"  style="overflow:visible;"/>
		</clipPath>
		
			<clipPath id="SVGID_00000106119973501340728090000003962216233196707750_" style="clip-path:url(#SVGID_00000084510616518264050730000004918445021967794563_);">
			<use xlink:href="#SVGID_00000151527942723096782130000012037901851894274234_"  style="overflow:visible;"/>
		</clipPath>
		
			<rect x="245.9" y="118.3" style="clip-path:url(#SVGID_00000106119973501340728090000003962216233196707750_);fill:#B2282D;" width="530.1" height="531.2"/>
	</g>
	<g>
		<defs>
			<rect id="SVGID_00000141423674609529195420000009867544468530302869_" x="298.5" y="241.2" width="449.3" height="232.4"/>
		</defs>
		<defs>
			<rect id="SVGID_00000005982965203162664280000003952494451589205431_" x="298.5" y="241.2" width="449.3" height="232.4"/>
		</defs>
		<defs>
			<path id="SVGID_00000008144088958866615880000002383965078479812998_" d="M333.7,462c-0.5-0.3-0.9-0.7-1.3-1
				c-14.6-11.4-14.5-11.1-24.3-18.5c-13.2-9.9,35.3-85.8,80.1-122.1c79.8-64.6,118.4-78.7,123.4-74.9c4.7,3.6,15.6,13.7,18.9,16.6
				c3.8,3.2,6.8,7.1,7.5,12.4c1.6,12.2-5.8,27.8-23,30.4c-5.9,0.8-13.1,1.8-18.5-2.5c-1.4-1.1-8.3-6.5-15.7-11.7
				c-11,6.7-21.1,14-30.4,21.9c-18,15.4-50.3,47.3-61.6,74.7c-2.7,6.6-5.2,15.9-5.1,24c0.1,7.5,11.1-0.5,16.7-4
				c12.2-7.6,18.8-12,30.4-24.8c21.5-23.4,45.5-50.2,55.3-42.9c11.6,8.7,19.7,14.6,25.6,19.5c9.3,7.6,7.2,7.8,11.1,3.8
				c7.4-7.6,37.6-27,43.8-22.2c7.8,6.1,18.3,13.9,24.4,18.3c2.1,1.5,3.3,3.5,4.2,5.1c1.7,3,4.2-0.3,5.8-2.7
				c1.5-2.2,16-20.4,18.2-20.3c10.7,7.9,20.1,15.4,23.4,17.8c1.4,1,30.4-29.2,42.9-19.6c11.5,8.8,47.8,36.9,55.8,43.1
				c-14.1,17.8-38.1,19.8-38.1,19.8c-2.3,3.7-13.4,20.3-16.3,24.4c-6.3,8.8-37,40.1-53.2,35.9c-2.8-0.8-5-1.8-6.9-3.3
				c-8.7-6.8-9.7-7.5-15.6-11.9c-12.1,10.3-30.7,22.8-44.9,14.5c-0.4-0.2-0.8-0.5-1.1-0.8c-7.5-6-8.2-6-15.9-12
				c-12.7,9.5-30.4,19.4-43.1,12.8c-0.9-0.5-1.8-1.1-2.6-1.7c-11.8-8.9-13.3-9.7-23.3-17.6c-3.5,3.7-7.3,7.5-11.3,11
				c-9,7.9-25.9,14.2-38.5,9.1c-1.4-0.6-2.7-1.3-3.8-2.1c-7.5-5.7-15.6-11.7-20-15c-10.5,7-23.1,14.1-30.6,16.5
				C369.1,464.4,349.9,473.2,333.7,462"/>
		</defs>
		<defs>
			<rect id="SVGID_00000034777770949416605970000009614556183267872658_" x="305.8" y="245" width="435.4" height="222.6"/>
		</defs>
		<clipPath id="SVGID_00000065759078324937297220000006098220092847765915_">
			<use xlink:href="#SVGID_00000141423674609529195420000009867544468530302869_"  style="overflow:visible;"/>
		</clipPath>
		
			<clipPath id="SVGID_00000081633756547344823120000017066570487016771217_" style="clip-path:url(#SVGID_00000065759078324937297220000006098220092847765915_);">
			<use xlink:href="#SVGID_00000005982965203162664280000003952494451589205431_"  style="overflow:visible;"/>
		</clipPath>
		
			<clipPath id="SVGID_00000085967899364965085040000012430223785036098483_" style="clip-path:url(#SVGID_00000081633756547344823120000017066570487016771217_);">
			<use xlink:href="#SVGID_00000008144088958866615880000002383965078479812998_"  style="overflow:visible;"/>
		</clipPath>
		
			<clipPath id="SVGID_00000076595111262785634410000000759986451167135403_" style="clip-path:url(#SVGID_00000085967899364965085040000012430223785036098483_);">
			<use xlink:href="#SVGID_00000034777770949416605970000009614556183267872658_"  style="overflow:visible;"/>
		</clipPath>
		
			<rect x="276.8" y="215.9" style="clip-path:url(#SVGID_00000076595111262785634410000000759986451167135403_);fill:#512C1D;" width="493.5" height="280.7"/>
	</g>
	<g>
		<defs>
			<rect id="SVGID_00000032625822793940678650000012673855246247617688_" x="600.6" y="295.4" width="62" height="46.5"/>
		</defs>
		<defs>
			<rect id="SVGID_00000148645247537746467790000000177274535057884293_" x="600.6" y="295.4" width="62" height="46.5"/>
		</defs>
		<defs>
			<path id="SVGID_00000003789523921443806630000000256956175606508193_" d="M623.7,336.5c3.7,2.9,8.8,4.7,14.4,4.7
				c11.2,0,18.9-5.6,18.9-14.4c0-4.8-2.4-8.9-6.4-12.3c-3.2-2.7-12.8-11.5-18-15.5c-8.9-6.9-33.1,19.2-28.8,22.3
				C607.3,323.9,620.1,333.6,623.7,336.5"/>
		</defs>
		<defs>
			<rect id="SVGID_00000144319911437891407810000009666258371234680475_" x="603.3" y="297.8" width="53.8" height="43.4"/>
		</defs>
		<clipPath id="SVGID_00000098923029100936166440000004473981393437623737_">
			<use xlink:href="#SVGID_00000032625822793940678650000012673855246247617688_"  style="overflow:visible;"/>
		</clipPath>
		
			<clipPath id="SVGID_00000118380656414932560320000010036302692186878611_" style="clip-path:url(#SVGID_00000098923029100936166440000004473981393437623737_);">
			<use xlink:href="#SVGID_00000148645247537746467790000000177274535057884293_"  style="overflow:visible;"/>
		</clipPath>
		
			<clipPath id="SVGID_00000165199401780821886110000003030863844270172572_" style="clip-path:url(#SVGID_00000118380656414932560320000010036302692186878611_);">
			<use xlink:href="#SVGID_00000003789523921443806630000000256956175606508193_"  style="overflow:visible;"/>
		</clipPath>
		
			<clipPath id="SVGID_00000106127716583305259180000003577479390618655162_" style="clip-path:url(#SVGID_00000165199401780821886110000003030863844270172572_);">
			<use xlink:href="#SVGID_00000144319911437891407810000009666258371234680475_"  style="overflow:visible;"/>
		</clipPath>
		
			<rect x="574.2" y="268.8" style="clip-path:url(#SVGID_00000106127716583305259180000003577479390618655162_);fill:#512C1D;" width="111.9" height="101.5"/>
	</g>
	<g>
		<defs>
			<rect id="SVGID_00000096041361493226546490000009639584803580436138_" x="290.7" y="233.4" width="433.8" height="216.9"/>
		</defs>
		<defs>
			<rect id="SVGID_00000060029459324068722710000016158497052230460325_" x="290.7" y="233.4" width="433.8" height="216.9"/>
		</defs>
		<defs>
			<path id="SVGID_00000085945210112566221650000006086527541352842119_" d="M467.7,381.8c-1.7-0.8-13-4.7-4.2-24
				c-15,6.4-44.8,45.8-31.6,55.7C443.3,422.1,467.7,381.8,467.7,381.8 M640.2,411.2c11.3-5.6,24-25.4,25.1-29.2
				c-2.3-2.1-11.2-9-3-25.6c0,0-0.1,0.2-0.2,0.2c-7.5,5-27.6,22.3-32.5,39C624.5,412.9,628.9,416.8,640.2,411.2 M308.7,443.1
				c-15.7-11.1-13.4-30-10.8-45.4c2.8-16.4,20.5-59.9,65.2-96.2c79.8-64.6,126.4-61.7,132.6-61.5c11.8,0.5,20.2,6.7,21.6,16.7
				c1.6,12.2-6.1,29.6-23.3,32.2c-7.4,1.1-16.8,2.3-22.4-6.9c-5.5-9.1,4.3-21.5,4.3-21.5c-18.9,9.3-36,20.5-50.7,33.1
				c-18,15.4-50.3,47.3-61.6,74.7c-5.2,12.7-9.5,35.5,3.4,40.2c13.1,4.7,28.5-7.8,46.1-30.4c42.7-54.7,62.4-46.9,73.4-37.9
				c9.3,7.6,2.2,27.7,2.2,27.7c5,0.1,17.4-3.9,21.3-7.9c7.4-7.6,25-18.3,32.5-20.7c15.9-5.1,24-1.1,27.6,5.8
				c5.6,10.9-9.9,31.7-23.3,29.4c-12.7-2.1-3.9-18.7-3.9-18.7c-2.8,1-11.5,6.6-19.3,16.2c-3.3,4.8-13.9,15.6-15,27.7
				c-0.4,3.9-1,12.8,10.8,9.9c17.2-4.2,46.9-37.4,48.7-39.6c6-7.7,20.1-26.7,21.7-29h29.5c-2.2,2.6-27.6,34.7-41.2,52.7
				c-6.2,8.3-8.2,15.4-4.3,16.3c8.3,2,33.2-20.3,40.7-30.7c25-34.8,58.3-50.2,70.8-40.6c8,6.2,6,23.4,2.9,28.8
				c6.7,2,18-5.6,22.3-9.1c1.1,0.8,7.6,5.9,8.5,6.5c-14.1,17.8-38.2,19.8-38.2,19.8c-2.3,3.7-13.4,20.3-16.3,24.4
				c-6.3,8.8-37,40.1-53.2,35.8c-16.3-4.2-14.3-22.5-13.7-27.2h-0.1c-6.1,5.5-35.8,36.8-56.1,24.8c-9.1-5.4-3.7-21.2-2.2-25.4
				l-0.1-0.1c-6.6,6.5-38.2,35.7-57.8,25.5c-15.6-8.1-5.7-28.1-4.1-35.6c1.7-7.4,10.7-20.5,13.1-23.7l-0.1-0.2c0,0-7.9,1-8.3,1.3
				c-2.5,5.7-15.3,30.2-37.9,49.9c-9,7.9-25.8,14.2-38.5,9.1c-11.5-4.7-10.6-17.1-7.7-30c-7.3,8.3-34.3,24.5-46.7,29.3
				C344.2,445.9,324.8,454.4,308.7,443.1"/>
		</defs>
		<defs>
			<rect id="SVGID_00000049941497027266919480000016420935729025472659_" x="290.7" y="233.4" width="433.8" height="216.9"/>
		</defs>
		<clipPath id="SVGID_00000136381775553885126690000014424236915506766979_">
			<use xlink:href="#SVGID_00000096041361493226546490000009639584803580436138_"  style="overflow:visible;"/>
		</clipPath>
		
			<clipPath id="SVGID_00000133518128386398283520000012779504024118801598_" style="clip-path:url(#SVGID_00000136381775553885126690000014424236915506766979_);">
			<use xlink:href="#SVGID_00000060029459324068722710000016158497052230460325_"  style="overflow:visible;"/>
		</clipPath>
		
			<clipPath id="SVGID_00000036247378388512548480000002012934833321294498_" style="clip-path:url(#SVGID_00000133518128386398283520000012779504024118801598_);">
			<use xlink:href="#SVGID_00000085945210112566221650000006086527541352842119_"  style="overflow:visible;"/>
		</clipPath>
		
			<clipPath id="SVGID_00000076595079576823839150000018312112218721732786_" style="clip-path:url(#SVGID_00000036247378388512548480000002012934833321294498_);">
			<use xlink:href="#SVGID_00000049941497027266919480000016420935729025472659_"  style="overflow:visible;"/>
		</clipPath>
		
			<rect x="267" y="210.9" style="clip-path:url(#SVGID_00000076595079576823839150000018312112218721732786_);fill:#FFFFFF;" width="481.1" height="267"/>
	</g>
	<g>
		<defs>
			<rect id="SVGID_00000122719578104229150290000003947430476533161360_" x="592.8" y="287.7" width="46.5" height="46.5"/>
		</defs>
		<defs>
			<rect id="SVGID_00000008850589981171388310000003697554058330834586_" x="592.8" y="287.7" width="46.5" height="46.5"/>
		</defs>
		<defs>
			<path id="SVGID_00000115478427843649447930000014735221237224684432_" d="M618.8,326.6c11.2,0,20.2-7.1,20.2-16
				c0-8.8-9-16-20.2-16c-11.2,0-20.2,7.1-20.2,16C598.5,319.4,607.6,326.6,618.8,326.6"/>
		</defs>
		<clipPath id="SVGID_00000009574793121232056830000004253666518614993580_">
			<use xlink:href="#SVGID_00000122719578104229150290000003947430476533161360_"  style="overflow:visible;"/>
		</clipPath>
		
			<clipPath id="SVGID_00000111154328480479491030000012790984806845037482_" style="clip-path:url(#SVGID_00000009574793121232056830000004253666518614993580_);">
			<use xlink:href="#SVGID_00000008850589981171388310000003697554058330834586_"  style="overflow:visible;"/>
		</clipPath>
		
			<clipPath id="SVGID_00000013157344655493383940000015170006310543132584_" style="clip-path:url(#SVGID_00000111154328480479491030000012790984806845037482_);">
			<use xlink:href="#SVGID_00000115478427843649447930000014735221237224684432_"  style="overflow:visible;"/>
		</clipPath>
		
			<rect x="569.5" y="265.6" style="clip-path:url(#SVGID_00000013157344655493383940000015170006310543132584_);fill:#FFFFFF;" width="98.6" height="90"/>
	</g>
	<g>
		<defs>
			<rect id="SVGID_00000110431618257000733350000011236780784825739696_" x="391.4" y="489.1" width="31" height="31"/>
		</defs>
		<defs>
			<rect id="SVGID_00000018216901800519918890000016707798556025921963_" x="391.4" y="489.1" width="31" height="31"/>
		</defs>
		<defs>
			<path id="SVGID_00000024704298915649559580000014317007556920036227_" d="M413.2,501.8c-1-1.3-2.5-2.3-4.8-2.3
				c-2.1,0-3.8,0.9-3.8,2.6c0,2.8,3.9,3.1,5.9,3.6c3.8,0.9,6.7,2.4,6.7,6.8c0,5.2-4.8,7.3-9.4,7.3c-3.8,0-6.7-1-8.9-4.1l3.3-2.7
				c1.4,1.4,3.1,2.7,5.6,2.7c2.2,0,4.7-0.9,4.7-2.9c0-2.6-3.7-3.1-5.6-3.6c-3.7-0.9-7.1-2.2-7.1-6.6c0-4.8,4.4-7.1,8.8-7.1
				c3.1,0,6.2,1.1,7.9,3.8L413.2,501.8z M413.2,501.8"/>
		</defs>
		<defs>
			<rect id="SVGID_00000024688089561981119890000015788203478097153922_" x="391.4" y="489.1" width="31" height="31"/>
		</defs>
		<clipPath id="SVGID_00000179634357713616973150000014583082399199446188_">
			<use xlink:href="#SVGID_00000110431618257000733350000011236780784825739696_"  style="overflow:visible;"/>
		</clipPath>
		
			<clipPath id="SVGID_00000016786705971223942130000017894202922132038301_" style="clip-path:url(#SVGID_00000179634357713616973150000014583082399199446188_);">
			<use xlink:href="#SVGID_00000018216901800519918890000016707798556025921963_"  style="overflow:visible;"/>
		</clipPath>
		
			<clipPath id="SVGID_00000132079895089132343030000016603044375661003412_" style="clip-path:url(#SVGID_00000016786705971223942130000017894202922132038301_);">
			<use xlink:href="#SVGID_00000024704298915649559580000014317007556920036227_"  style="overflow:visible;"/>
		</clipPath>
		
			<clipPath id="SVGID_00000142151698215897574500000006216175490003111866_" style="clip-path:url(#SVGID_00000132079895089132343030000016603044375661003412_);">
			<use xlink:href="#SVGID_00000024688089561981119890000015788203478097153922_"  style="overflow:visible;"/>
		</clipPath>
		
			<rect x="369.9" y="466.4" style="clip-path:url(#SVGID_00000142151698215897574500000006216175490003111866_);fill:#FFFFFF;" width="76.4" height="82.4"/>
	</g>
	<g>
		<defs>
			<rect id="SVGID_00000001626895061639925320000017752374400741087115_" x="422.4" y="481.3" width="7.7" height="38.7"/>
		</defs>
		<defs>
			<rect id="SVGID_00000059269402312177149770000016265778029201218194_" x="422.4" y="481.3" width="7.7" height="38.7"/>
		</defs>
		<defs>
			<path id="SVGID_00000018935742942396077680000012789160944618448573_" d="M425.9,484.5c1.8,0,3.2,1.5,3.2,3.2
				c0,1.7-1.4,3.2-3.2,3.2c-1.7,0-3.2-1.5-3.2-3.2C422.7,486,424.1,484.5,425.9,484.5L425.9,484.5z M423.7,496h4.4v23.1h-4.4V496z
				 M423.7,496"/>
		</defs>
		<defs>
			<rect id="SVGID_00000113343116882866050440000015927728981900417705_" x="422.4" y="482.1" width="7.7" height="38"/>
		</defs>
		<clipPath id="SVGID_00000076566848391115353010000007657977010174441860_">
			<use xlink:href="#SVGID_00000001626895061639925320000017752374400741087115_"  style="overflow:visible;"/>
		</clipPath>
		
			<clipPath id="SVGID_00000090986601657831856560000010310851711245045141_" style="clip-path:url(#SVGID_00000076566848391115353010000007657977010174441860_);">
			<use xlink:href="#SVGID_00000059269402312177149770000016265778029201218194_"  style="overflow:visible;"/>
		</clipPath>
		
			<clipPath id="SVGID_00000119093784326670318180000000019615534688547756_" style="clip-path:url(#SVGID_00000090986601657831856560000010310851711245045141_);">
			<use xlink:href="#SVGID_00000018935742942396077680000012789160944618448573_"  style="overflow:visible;"/>
		</clipPath>
		
			<clipPath id="SVGID_00000085934223761664057560000014108559581757949368_" style="clip-path:url(#SVGID_00000119093784326670318180000000019615534688547756_);">
			<use xlink:href="#SVGID_00000113343116882866050440000015927728981900417705_"  style="overflow:visible;"/>
		</clipPath>
		
			<rect x="393.6" y="455.5" style="clip-path:url(#SVGID_00000085934223761664057560000014108559581757949368_);fill:#FFFFFF;" width="64.5" height="92.8"/>
	</g>
	<g>
		<defs>
			<rect id="SVGID_00000065039915892441441640000006747779169846086065_" x="430.2" y="489.1" width="31" height="31"/>
		</defs>
		<defs>
			<rect id="SVGID_00000019665031392521045980000010816297647648596101_" x="430.2" y="489.1" width="31" height="31"/>
		</defs>
		<defs>
			<path id="SVGID_00000152230747218163946750000008841666587982358434_" d="M436,496h4.4v3.6h0.1c1.1-2.4,4.1-4.1,7.6-4.1
				c4.5,0,8.4,2.7,8.4,8.8v14.9h-4.4v-13.7c0-4.3-2.5-5.9-5.3-5.9c-3.7,0-6.4,2.3-6.4,7.7v11.9H436V496z M436,496"/>
		</defs>
		<defs>
			<rect id="SVGID_00000059301157171250530120000010965174622376284060_" x="430.2" y="489.1" width="31" height="31"/>
		</defs>
		<clipPath id="SVGID_00000138531072175834604720000016332562396033365935_">
			<use xlink:href="#SVGID_00000065039915892441441640000006747779169846086065_"  style="overflow:visible;"/>
		</clipPath>
		
			<clipPath id="SVGID_00000075862414289100248090000011746536119050692287_" style="clip-path:url(#SVGID_00000138531072175834604720000016332562396033365935_);">
			<use xlink:href="#SVGID_00000019665031392521045980000010816297647648596101_"  style="overflow:visible;"/>
		</clipPath>
		
			<clipPath id="SVGID_00000050656148004281693640000007300574374436282043_" style="clip-path:url(#SVGID_00000075862414289100248090000011746536119050692287_);">
			<use xlink:href="#SVGID_00000152230747218163946750000008841666587982358434_"  style="overflow:visible;"/>
		</clipPath>
		
			<clipPath id="SVGID_00000013905584550158284740000016700548118380229033_" style="clip-path:url(#SVGID_00000050656148004281693640000007300574374436282043_);">
			<use xlink:href="#SVGID_00000059301157171250530120000010965174622376284060_"  style="overflow:visible;"/>
		</clipPath>
		
			<rect x="407" y="466.4" style="clip-path:url(#SVGID_00000013905584550158284740000016700548118380229033_);fill:#FFFFFF;" width="78.6" height="81.8"/>
	</g>
	<g>
		<defs>
			<rect id="SVGID_00000173866515505324336900000013760510018836297619_" x="461.1" y="489.1" width="23.2" height="31"/>
		</defs>
		<defs>
			<rect id="SVGID_00000100360863019809638570000000335295520781723052_" x="461.1" y="489.1" width="23.2" height="31"/>
		</defs>
		<defs>
			<path id="SVGID_00000031178039058334476650000011155345331670476174_" d="M480.7,502.2c-1.6-1.7-3.3-2.6-5.8-2.6
				c-4.8,0-7.2,3.9-7.2,8.2c0,4.4,2.9,7.9,7.4,7.9c2.4,0,4.1-0.9,5.6-2.6l3.1,3.1c-2.3,2.6-5.4,3.6-8.8,3.6c-7.1,0-12.1-4.9-12.1-12
				c0-7.1,4.9-12.2,12.1-12.2c3.4,0,6.6,1.2,8.9,3.7L480.7,502.2z M480.7,502.2"/>
		</defs>
		<defs>
			<rect id="SVGID_00000118359757288506575840000011629136932988210062_" x="461.1" y="489.1" width="23.2" height="31"/>
		</defs>
		<clipPath id="SVGID_00000145742005169842581980000016644108082256560563_">
			<use xlink:href="#SVGID_00000173866515505324336900000013760510018836297619_"  style="overflow:visible;"/>
		</clipPath>
		
			<clipPath id="SVGID_00000183927103957542615050000004305977758265189534_" style="clip-path:url(#SVGID_00000145742005169842581980000016644108082256560563_);">
			<use xlink:href="#SVGID_00000100360863019809638570000000335295520781723052_"  style="overflow:visible;"/>
		</clipPath>
		
			<clipPath id="SVGID_00000178921712063844245690000013040348490541676676_" style="clip-path:url(#SVGID_00000183927103957542615050000004305977758265189534_);">
			<use xlink:href="#SVGID_00000031178039058334476650000011155345331670476174_"  style="overflow:visible;"/>
		</clipPath>
		
			<clipPath id="SVGID_00000007406563558402280390000011316562894085205394_" style="clip-path:url(#SVGID_00000178921712063844245690000013040348490541676676_);">
			<use xlink:href="#SVGID_00000118359757288506575840000011629136932988210062_"  style="overflow:visible;"/>
		</clipPath>
		
			<rect x="434" y="466.4" style="clip-path:url(#SVGID_00000007406563558402280390000011316562894085205394_);fill:#FFFFFF;" width="79.1" height="82.3"/>
	</g>
	<g>
		<defs>
			<rect id="SVGID_00000064343327097361306910000006494024135715932086_" x="484.4" y="489.1" width="31" height="31"/>
		</defs>
		<defs>
			<rect id="SVGID_00000035498290966955372150000017046073194321188736_" x="484.4" y="489.1" width="31" height="31"/>
		</defs>
		<defs>
			<path id="SVGID_00000079454343805121689450000007270986392042053300_" d="M491.8,509.2c0,4.1,3.7,6.7,7.8,6.7
				c2.7,0,4.6-1.4,6.3-3.4l3.3,2.5c-2.4,3.2-5.8,4.7-10.3,4.7c-7.3,0-11.9-5.3-11.9-12.1c0-6.9,5-12.2,12-12.2
				c8.1,0,11.3,6.3,11.3,12.2v1.6H491.8z M505.7,505.7c-0.1-3.9-2.2-6.8-6.7-6.8c-4.3,0-7.2,3.7-7.2,6.8H505.7z M505.7,505.7"/>
		</defs>
		<defs>
			<rect id="SVGID_00000181775236905132859320000010506246789469000844_" x="484.4" y="489.1" width="31" height="31"/>
		</defs>
		<clipPath id="SVGID_00000113338296373530220300000018232157898732594827_">
			<use xlink:href="#SVGID_00000064343327097361306910000006494024135715932086_"  style="overflow:visible;"/>
		</clipPath>
		
			<clipPath id="SVGID_00000002381175346934428720000008707468733031329422_" style="clip-path:url(#SVGID_00000113338296373530220300000018232157898732594827_);">
			<use xlink:href="#SVGID_00000035498290966955372150000017046073194321188736_"  style="overflow:visible;"/>
		</clipPath>
		
			<clipPath id="SVGID_00000072982566902912273990000005513719397486354048_" style="clip-path:url(#SVGID_00000002381175346934428720000008707468733031329422_);">
			<use xlink:href="#SVGID_00000079454343805121689450000007270986392042053300_"  style="overflow:visible;"/>
		</clipPath>
		
			<clipPath id="SVGID_00000020360527161895852980000002270473938836283542_" style="clip-path:url(#SVGID_00000072982566902912273990000005513719397486354048_);">
			<use xlink:href="#SVGID_00000181775236905132859320000010506246789469000844_"  style="overflow:visible;"/>
		</clipPath>
		
			<rect x="458.1" y="466.4" style="clip-path:url(#SVGID_00000020360527161895852980000002270473938836283542_);fill:#FFFFFF;" width="81.3" height="82.4"/>
	</g>
	<g>
		<defs>
			<rect id="SVGID_00000145021905525445148730000002607234671830527121_" x="515.4" y="481.3" width="23.2" height="38.7"/>
		</defs>
		<defs>
			<rect id="SVGID_00000048479603553364337940000010819210244852178070_" x="515.4" y="481.3" width="23.2" height="38.7"/>
		</defs>
		<defs>
			<path id="SVGID_00000001623734007819530990000000485705605897174422_" d="M532.2,490l-6.4,5.8l-2.7-3.3l9.6-8h4.1v34.6h-4.7V490z
				 M532.2,490"/>
		</defs>
		<defs>
			<rect id="SVGID_00000121257067012287726570000012352211925110384008_" x="515.4" y="482.1" width="23.2" height="38"/>
		</defs>
		<clipPath id="SVGID_00000080904550672715717450000005588642898440377227_">
			<use xlink:href="#SVGID_00000145021905525445148730000002607234671830527121_"  style="overflow:visible;"/>
		</clipPath>
		
			<clipPath id="SVGID_00000131362633110775301220000008076017127161360269_" style="clip-path:url(#SVGID_00000080904550672715717450000005588642898440377227_);">
			<use xlink:href="#SVGID_00000048479603553364337940000010819210244852178070_"  style="overflow:visible;"/>
		</clipPath>
		
			<clipPath id="SVGID_00000097472848651689782650000003722368361397671310_" style="clip-path:url(#SVGID_00000131362633110775301220000008076017127161360269_);">
			<use xlink:href="#SVGID_00000001623734007819530990000000485705605897174422_"  style="overflow:visible;"/>
		</clipPath>
		
			<clipPath id="SVGID_00000153673245500067432420000017902077107853135791_" style="clip-path:url(#SVGID_00000097472848651689782650000003722368361397671310_);">
			<use xlink:href="#SVGID_00000121257067012287726570000012352211925110384008_"  style="overflow:visible;"/>
		</clipPath>
		
			<rect x="494" y="455.6" style="clip-path:url(#SVGID_00000153673245500067432420000017902077107853135791_);fill:#FFFFFF;" width="71.9" height="92.7"/>
	</g>
	<g>
		<defs>
			<rect id="SVGID_00000036233500322254939120000000189103271313651105_" x="538.6" y="481.3" width="38.7" height="38.7"/>
		</defs>
		<defs>
			<rect id="SVGID_00000039121570824116743580000018015699880674147000_" x="538.6" y="481.3" width="38.7" height="38.7"/>
		</defs>
		<defs>
			<path id="SVGID_00000116236849614471640910000011832006361295475631_" d="M560.7,505.8h-0.2c-1.1,0.6-2.4,0.8-3.8,0.8
				c-5,0-10.7-3.4-10.7-10.9c0-7.6,5.4-11.6,11.9-11.6c6.5,0,11.9,4.4,11.9,11.1c0,4.3-1.4,6.9-3.5,10.2l-8.7,13.8H552L560.7,505.8z
				 M557.9,488.1c-4.3,0-7.2,3-7.2,7.2c0,4.2,2.9,7.2,7.2,7.2c4.3,0,7.1-3,7.1-7.2C565,491.1,562.2,488.1,557.9,488.1L557.9,488.1z
				 M557.9,488.1"/>
		</defs>
		<defs>
			<rect id="SVGID_00000085238309750198503680000006691444026168671886_" x="538.6" y="482.1" width="38.7" height="38"/>
		</defs>
		<clipPath id="SVGID_00000078025872866600736690000009326916877001920443_">
			<use xlink:href="#SVGID_00000036233500322254939120000000189103271313651105_"  style="overflow:visible;"/>
		</clipPath>
		
			<clipPath id="SVGID_00000083086320397026895220000006053279561534930817_" style="clip-path:url(#SVGID_00000078025872866600736690000009326916877001920443_);">
			<use xlink:href="#SVGID_00000039121570824116743580000018015699880674147000_"  style="overflow:visible;"/>
		</clipPath>
		
			<clipPath id="SVGID_00000031204231612626421140000016987349531413728441_" style="clip-path:url(#SVGID_00000083086320397026895220000006053279561534930817_);">
			<use xlink:href="#SVGID_00000116236849614471640910000011832006361295475631_"  style="overflow:visible;"/>
		</clipPath>
		
			<clipPath id="SVGID_00000162350552826305622420000012675883805610188216_" style="clip-path:url(#SVGID_00000031204231612626421140000016987349531413728441_);">
			<use xlink:href="#SVGID_00000085238309750198503680000006691444026168671886_"  style="overflow:visible;"/>
		</clipPath>
		
			<rect x="517" y="455" style="clip-path:url(#SVGID_00000162350552826305622420000012675883805610188216_);fill:#FFFFFF;" width="81.8" height="93.2"/>
	</g>
	<g>
		<defs>
			<rect id="SVGID_00000137825740184383611430000013142817479994312368_" x="569.6" y="481.3" width="31" height="38.7"/>
		</defs>
		<defs>
			<rect id="SVGID_00000115504292679185811660000003898559233997246856_" x="569.6" y="481.3" width="31" height="38.7"/>
		</defs>
		<defs>
			<path id="SVGID_00000064340089803592800640000001913726494418811295_" d="M594.8,489h-14l-0.1,8.6c1-0.4,3.5-0.7,4.6-0.7
				c6.5,0,10.7,4.7,10.7,11.4c0,6.9-5.4,11.4-12.1,11.4c-4.7,0-8.8-2.5-10.4-7l4.7-1.6c1.2,3.2,3.3,4.5,6.4,4.5
				c3.7,0,6.7-2.7,6.7-7.1c0-5-3.4-7.6-8.4-7.6c-1.8,0-4.8,0.6-7.1,1.8l0.4-18.2h18.6V489z M594.8,489"/>
		</defs>
		<defs>
			<rect id="SVGID_00000141438908424691142930000011385593563068638368_" x="569.6" y="482.1" width="31" height="38"/>
		</defs>
		<clipPath id="SVGID_00000024708300371840696710000008108437564429146803_">
			<use xlink:href="#SVGID_00000137825740184383611430000013142817479994312368_"  style="overflow:visible;"/>
		</clipPath>
		
			<clipPath id="SVGID_00000158006735745402872340000006156819801992010124_" style="clip-path:url(#SVGID_00000024708300371840696710000008108437564429146803_);">
			<use xlink:href="#SVGID_00000115504292679185811660000003898559233997246856_"  style="overflow:visible;"/>
		</clipPath>
		
			<clipPath id="SVGID_00000086687487548622067860000011106735488057514887_" style="clip-path:url(#SVGID_00000158006735745402872340000006156819801992010124_);">
			<use xlink:href="#SVGID_00000064340089803592800640000001913726494418811295_"  style="overflow:visible;"/>
		</clipPath>
		
			<clipPath id="SVGID_00000027568609595994492310000001495617742801391256_" style="clip-path:url(#SVGID_00000086687487548622067860000011106735488057514887_);">
			<use xlink:href="#SVGID_00000141438908424691142930000011385593563068638368_"  style="overflow:visible;"/>
		</clipPath>
		
			<rect x="544.4" y="455.6" style="clip-path:url(#SVGID_00000027568609595994492310000001495617742801391256_);fill:#FFFFFF;" width="80.6" height="93.2"/>
	</g>
	<g>
		<defs>
			<rect id="SVGID_00000065791652709961508920000016666660304833801866_" x="600.6" y="481.3" width="15.5" height="38.7"/>
		</defs>
		<defs>
			<rect id="SVGID_00000047051936510703476000000006562291432275588508_" x="600.6" y="481.3" width="15.5" height="38.7"/>
		</defs>
		<defs>
			<path id="SVGID_00000164492900821018650230000011142749320513775754_" d="M609.8,490l-6.4,5.8l-2.7-3.3l9.6-8h4.1v34.6h-4.7V490z
				 M609.8,490"/>
		</defs>
		<defs>
			<rect id="SVGID_00000121260698267427811120000004347273845374299579_" x="600.6" y="482.1" width="15.5" height="38"/>
		</defs>
		<clipPath id="SVGID_00000164511339502488898020000012312723318193420444_">
			<use xlink:href="#SVGID_00000065791652709961508920000016666660304833801866_"  style="overflow:visible;"/>
		</clipPath>
		
			<clipPath id="SVGID_00000015313816622185119940000008805228888308147843_" style="clip-path:url(#SVGID_00000164511339502488898020000012312723318193420444_);">
			<use xlink:href="#SVGID_00000047051936510703476000000006562291432275588508_"  style="overflow:visible;"/>
		</clipPath>
		
			<clipPath id="SVGID_00000062157474482582152000000011866833736503465124_" style="clip-path:url(#SVGID_00000015313816622185119940000008805228888308147843_);">
			<use xlink:href="#SVGID_00000164492900821018650230000011142749320513775754_"  style="overflow:visible;"/>
		</clipPath>
		
			<clipPath id="SVGID_00000142887000826188972950000001228989347361365419_" style="clip-path:url(#SVGID_00000062157474482582152000000011866833736503465124_);">
			<use xlink:href="#SVGID_00000121260698267427811120000004347273845374299579_"  style="overflow:visible;"/>
		</clipPath>
		
			<rect x="571.7" y="455.6" style="clip-path:url(#SVGID_00000142887000826188972950000001228989347361365419_);fill:#FFFFFF;" width="71.9" height="92.7"/>
	</g>
	<g>
		<defs>
			<rect id="SVGID_00000132047935199730926700000001666395128589477044_" x="678.1" y="427.1" width="38.7" height="38.7"/>
		</defs>
		<defs>
			<rect id="SVGID_00000001660585307550387710000006812665815882729861_" x="678.1" y="427.1" width="38.7" height="38.7"/>
		</defs>
		<defs>
			<path id="SVGID_00000041984703888582297120000016781945032146732444_" d="M712.2,448.8c0,2.1-0.4,4.1-1.1,5.8
				c-0.8,1.8-1.8,3.2-3.1,4.5c-1.3,1.2-2.7,2.2-4.4,2.9c-1.7,0.7-3.4,1-5.3,1c-2,0-3.9-0.4-5.6-1.1c-1.7-0.7-3.2-1.7-4.4-3
				c-1.2-1.3-2.2-2.8-2.9-4.5c-0.7-1.7-1-3.6-1-5.6c0-2.1,0.4-4.1,1.1-5.8c0.7-1.7,1.8-3.2,3-4.4c1.3-1.2,2.8-2.2,4.4-2.9
				c1.7-0.7,3.4-1,5.3-1c1.9,0,3.6,0.3,5.3,1c1.7,0.7,3.1,1.6,4.4,2.9c1.3,1.2,2.3,2.7,3.1,4.4C711.8,444.7,712.2,446.7,712.2,448.8
				L712.2,448.8z M709.1,448.8c0-1.7-0.3-3.3-0.9-4.7c-0.5-1.4-1.3-2.7-2.3-3.7c-1-1.1-2.1-1.8-3.4-2.4c-1.3-0.5-2.7-0.8-4.2-0.8
				c-1.5,0-3,0.3-4.3,0.8c-1.3,0.6-2.5,1.4-3.5,2.4c-1,1-1.8,2.3-2.3,3.7c-0.5,1.4-0.8,3-0.8,4.7c0,1.6,0.2,3.1,0.8,4.5
				c0.5,1.4,1.2,2.7,2.2,3.7c0.9,1.1,2.1,1.9,3.4,2.5c1.3,0.6,2.9,0.9,4.5,0.9c1.5,0,2.9-0.3,4.2-0.8c1.3-0.6,2.5-1.4,3.4-2.4
				c1-1,1.8-2.3,2.3-3.7C708.9,452.1,709.1,450.5,709.1,448.8L709.1,448.8z M695.5,456.9h-2.6v-15.7h6c1.9,0,3.3,0.4,4.3,1.1
				c0.9,0.7,1.4,1.8,1.4,3.4c0,1.4-0.4,2.5-1.2,3.1c-0.8,0.7-1.8,1.1-2.9,1.2l4.4,6.9H702l-4.1-6.7h-2.4L695.5,456.9L695.5,456.9z
				 M698.4,448c0.5,0,0.9,0,1.4-0.1c0.4,0,0.8-0.1,1.1-0.3c0.4-0.2,0.6-0.4,0.8-0.7c0.2-0.3,0.3-0.8,0.3-1.4c0-0.5-0.1-0.8-0.3-1.1
				c-0.2-0.3-0.5-0.5-0.8-0.7c-0.3-0.1-0.7-0.2-1.1-0.3c-0.4,0-0.8-0.1-1.2-0.1h-3.1v4.6H698.4z M698.4,448"/>
		</defs>
		<defs>
			<rect id="SVGID_00000141445161330911032880000015148934031113973172_" x="684.3" y="434.6" width="27.8" height="28.3"/>
		</defs>
		<clipPath id="SVGID_00000120533290993960887260000008782082125916932795_">
			<use xlink:href="#SVGID_00000132047935199730926700000001666395128589477044_"  style="overflow:visible;"/>
		</clipPath>
		
			<clipPath id="SVGID_00000064315479196418864270000009742316559010284931_" style="clip-path:url(#SVGID_00000120533290993960887260000008782082125916932795_);">
			<use xlink:href="#SVGID_00000001660585307550387710000006812665815882729861_"  style="overflow:visible;"/>
		</clipPath>
		
			<clipPath id="SVGID_00000077314540155757149530000002568860140304137906_" style="clip-path:url(#SVGID_00000064315479196418864270000009742316559010284931_);">
			<use xlink:href="#SVGID_00000041984703888582297120000016781945032146732444_"  style="overflow:visible;"/>
		</clipPath>
		
			<clipPath id="SVGID_00000112604216688911282750000002177751983664231319_" style="clip-path:url(#SVGID_00000077314540155757149530000002568860140304137906_);">
			<use xlink:href="#SVGID_00000141445161330911032880000015148934031113973172_"  style="overflow:visible;"/>
		</clipPath>
		
			<rect x="655.3" y="405.6" style="clip-path:url(#SVGID_00000112604216688911282750000002177751983664231319_);fill:#512C1D;" width="85.9" height="86.4"/>
	</g>
</g>
</svg>
